<svg width="1911" height="441" xmlns="http://www.w3.org/2000/svg" xmlns:xlink="http://www.w3.org/1999/xlink" overflow="hidden"><defs><clipPath id="clip0"><path d="M5 46 1916 46 1916 487 5 487Z" fill-rule="evenodd" clip-rule="evenodd"/></clipPath></defs><g clip-path="url(#clip0)" transform="translate(-5 -46)"><rect x="13.5001" y="81.5001" width="398" height="399" stroke="#000000" stroke-width="13" stroke-miterlimit="8" fill="#82AFD3"/><path d="M30 183.5C30 142.355 66.7126 109 112 109 157.287 109 194 142.355 194 183.5 194 224.645 157.287 258 112 258 66.7126 258 30 224.645 30 183.5Z" stroke="#000000" stroke-width="4" stroke-miterlimit="8" fill="#A90533" fill-rule="evenodd"/><path d="M33 379C33 338.131 69.7126 305 115 305 160.287 305 197 338.131 197 379 197 419.869 160.287 453 115 453 69.7126 453 33 419.869 33 379Z" stroke="#000000" stroke-width="4" stroke-miterlimit="8" fill="#004785" fill-rule="evenodd"/><path d="M229 183.5C229 142.355 265.713 109 311 109 356.287 109 393 142.355 393 183.5 393 224.645 356.287 258 311 258 265.713 258 229 224.645 229 183.5Z" stroke="#000000" stroke-width="4" stroke-miterlimit="8" fill="#EEEDEA" fill-rule="evenodd"/><path d="M212.5 81.5001 212.5 480.995" stroke="#000000" stroke-width="9" stroke-miterlimit="8" fill="none" fill-rule="evenodd"/><path d="M21.5001 282.5 410.676 282.5" stroke="#000000" stroke-width="9" stroke-miterlimit="8" fill="none" fill-rule="evenodd"/><path d="M445.12 109.725C445.12 106.824 445.424 105.002 446.033 104.258 446.642 103.515 448.133 103.143 450.507 103.143L494.061 103.143C511.958 103.143 524.939 107.029 533.004 114.8 541.07 122.572 545.103 135.345 545.103 153.12 545.103 167.474 542.546 178.592 537.433 186.475 532.319 194.359 524.223 199.713 513.145 202.539L545.924 257.537C547.264 259.842 548.177 261.59 548.664 262.78 549.151 263.97 549.394 265.123 549.394 266.238 549.394 267.726 548.862 268.748 547.796 269.306 546.731 269.864 544.981 270.143 542.546 270.143L535.789 270.143C533.415 270.143 531.711 269.808 530.676 269.139 529.641 268.469 528.424 266.982 527.024 264.676L495.613 211.91C493.97 209.158 492.387 207.243 490.865 206.165 489.344 205.087 487.304 204.547 484.748 204.547L463.838 204.547 463.838 263.784C463.838 266.536 463.488 268.283 462.788 269.027 462.088 269.771 460.551 270.143 458.177 270.143L450.507 270.143C448.133 270.143 446.642 269.771 446.033 269.027 445.424 268.283 445.12 266.461 445.12 263.561ZM493.879 183.352C506.297 183.352 514.697 181.065 519.08 176.491 523.463 171.917 525.654 164.201 525.654 153.343 525.654 142.187 523.036 134.564 517.801 130.474 512.566 126.384 503.801 124.338 491.505 124.338L463.838 124.338 463.838 183.352ZM574.12 109.501C574.12 106.75 574.409 105.002 574.987 104.258 575.565 103.515 576.95 103.143 579.142 103.143L652.463 103.143C654.776 103.143 656.221 103.496 656.8 104.202 657.378 104.909 657.667 106.675 657.667 109.501L657.667 118.203C657.667 120.88 657.363 122.572 656.754 123.279 656.145 123.985 654.715 124.338 652.463 124.338L592.838 124.338 592.838 171.638 634.657 171.638C636.91 171.638 638.355 172.029 638.995 172.81 639.634 173.591 639.953 175.357 639.953 178.109L639.953 186.698C639.953 189.376 639.634 191.086 638.995 191.83 638.355 192.574 636.91 192.946 634.657 192.946L592.838 192.946 592.838 248.947 655.293 248.947C657.484 248.947 658.9 249.319 659.539 250.063 660.178 250.806 660.498 252.48 660.498 255.083L660.498 263.784C660.498 266.61 660.209 268.376 659.63 269.083 659.052 269.789 657.606 270.143 655.293 270.143L579.142 270.143C576.95 270.143 575.565 269.771 574.987 269.027 574.409 268.283 574.12 266.536 574.12 263.784ZM678.641 254.443C678.641 252.794 679.326 249.998 680.696 246.055 682.065 242.112 683.633 240.141 685.398 240.141 686.555 240.141 687.955 240.499 689.598 241.216L691.424 241.861 695.807 243.689C700.555 245.768 704.725 247.274 708.317 248.206 711.908 249.138 716.473 249.604 722.013 249.604 733.822 249.604 742.329 247.166 747.534 242.291 752.738 237.417 755.34 230.248 755.34 220.785 755.34 209.816 752.449 202.504 746.666 198.848 740.883 195.192 731.555 192.647 718.68 191.213 705.806 189.779 695.914 185.209 689.005 177.502 682.096 169.796 678.641 159.992 678.641 148.092 678.641 137.553 680.772 128.987 685.033 122.391 689.294 115.796 694.559 110.939 700.829 107.82 707.099 104.702 715.56 103.143 726.213 103.143 736.44 103.143 745.129 104.236 752.282 106.422 759.434 108.609 763.695 110.258 765.065 111.369 766.434 112.48 767.119 114.075 767.119 116.154 767.119 117.803 766.404 120.563 764.974 124.434 763.543 128.306 761.823 130.241 759.815 130.241 759.084 130.241 758.217 130.08 757.212 129.757 756.208 129.435 755.219 129.094 754.245 128.736L750.684 127.445C746.484 126.155 742.42 125.205 738.494 124.596 734.568 123.986 729.896 123.682 724.478 123.682 714.008 123.682 706.84 125.994 702.975 130.618 699.11 135.242 697.177 140.564 697.177 146.586 697.177 154.902 699.581 160.763 704.39 164.168 709.199 167.573 718.482 170.082 732.239 171.695 745.997 173.308 756.406 178.237 763.467 186.481 770.528 194.726 774.059 205.407 774.059 218.526 774.059 233.151 770.315 245.41 762.828 255.303 755.34 265.196 742.436 270.143 724.113 270.143 717.904 270.143 711.938 269.569 706.216 268.422 700.494 267.275 695.183 265.698 690.283 263.691 685.383 261.683 682.218 260.07 680.787 258.852 679.356 257.633 678.641 256.163 678.641 254.443ZM801.12 109.501C801.12 106.75 801.409 105.002 801.987 104.258 802.565 103.515 803.95 103.143 806.142 103.143L879.463 103.143C881.776 103.143 883.221 103.496 883.8 104.202 884.378 104.909 884.667 106.675 884.667 109.501L884.667 118.203C884.667 120.88 884.363 122.572 883.754 123.279 883.145 123.985 881.715 124.338 879.463 124.338L819.838 124.338 819.838 171.638 861.657 171.638C863.91 171.638 865.355 172.029 865.995 172.81 866.634 173.591 866.953 175.357 866.953 178.109L866.953 186.698C866.953 189.376 866.634 191.086 865.995 191.83 865.355 192.574 863.91 192.946 861.657 192.946L819.838 192.946 819.838 248.947 882.293 248.947C884.484 248.947 885.9 249.319 886.539 250.063 887.178 250.806 887.498 252.48 887.498 255.083L887.498 263.784C887.498 266.61 887.209 268.376 886.63 269.083 886.052 269.789 884.606 270.143 882.293 270.143L806.142 270.143C803.95 270.143 802.565 269.771 801.987 269.027 801.409 268.283 801.12 266.536 801.12 263.784ZM898.606 257.537 944.078 110.171C944.869 107.419 945.752 105.56 946.726 104.593 947.7 103.626 949.435 103.143 951.93 103.143L959.052 103.143C961.487 103.143 963.1 103.477 963.892 104.147 964.683 104.816 965.566 106.675 966.54 109.725L1012.74 257.537C1013.84 261.181 1014.39 263.858 1014.39 265.569 1014.39 267.205 1013.93 268.376 1013.02 269.083 1012.1 269.789 1010.31 270.143 1007.63 270.143L1001.15 270.143C998.893 270.143 997.326 269.715 996.443 268.86 995.561 268.005 994.754 266.238 994.024 263.561L980.51 219.161 930.199 219.161 916.776 263.561C915.924 266.313 915.042 268.097 914.129 268.916 913.215 269.734 911.663 270.143 909.472 270.143L903.902 270.143C901.467 270.143 899.702 269.808 898.606 269.139 897.51 268.469 896.963 267.354 896.963 265.792 896.963 263.933 897.51 261.181 898.606 257.537ZM974.21 197.966 959.6 147.877C958.87 145.199 957.561 139.956 955.674 132.147L955.309 132.147C954.639 135.568 953.361 140.551 951.474 147.096L936.59 197.966ZM1034.12 109.725C1034.12 106.824 1034.42 105.002 1035.03 104.258 1035.64 103.515 1037.13 103.143 1039.51 103.143L1083.06 103.143C1100.96 103.143 1113.94 107.029 1122 114.8 1130.07 122.572 1134.1 135.345 1134.1 153.12 1134.1 167.474 1131.55 178.592 1126.43 186.475 1121.32 194.359 1113.22 199.713 1102.14 202.539L1134.92 257.537C1136.26 259.842 1137.18 261.59 1137.66 262.78 1138.15 263.97 1138.39 265.123 1138.39 266.238 1138.39 267.726 1137.86 268.748 1136.8 269.306 1135.73 269.864 1133.98 270.143 1131.55 270.143L1124.79 270.143C1122.42 270.143 1120.71 269.808 1119.68 269.139 1118.64 268.469 1117.42 266.982 1116.02 264.676L1084.61 211.91C1082.97 209.158 1081.39 207.243 1079.87 206.165 1078.34 205.087 1076.3 204.547 1073.75 204.547L1052.84 204.547 1052.84 263.784C1052.84 266.536 1052.49 268.283 1051.79 269.027 1051.09 269.771 1049.55 270.143 1047.18 270.143L1039.51 270.143C1037.13 270.143 1035.64 269.771 1035.03 269.027 1034.42 268.283 1034.12 266.461 1034.12 263.561ZM1082.88 183.352C1095.3 183.352 1103.7 181.065 1108.08 176.491 1112.46 171.917 1114.65 164.201 1114.65 153.343 1114.65 142.187 1112.04 134.564 1106.8 130.474 1101.57 126.384 1092.8 124.338 1080.5 124.338L1052.84 124.338 1052.84 183.352ZM1155.08 176.172C1155.08 152.545 1159.24 134.466 1167.55 121.937 1175.86 109.407 1189.57 103.143 1208.68 103.143 1220.92 103.143 1231.19 104.736 1239.5 107.922 1247.81 111.108 1251.96 114.527 1251.96 118.178 1251.96 120.469 1251.26 123.297 1249.86 126.662 1248.46 130.027 1246.79 131.71 1244.84 131.71 1244.05 131.71 1243.01 131.459 1241.74 130.958L1239.18 129.992 1237.17 129.132C1229.14 125.624 1220.58 123.87 1211.51 123.87 1196.96 123.87 1187.16 127.772 1182.11 135.576 1177.06 143.38 1174.53 157.449 1174.53 177.783L1174.53 195.073C1174.53 214.404 1177.06 228.294 1182.11 236.743 1187.16 245.191 1196.6 249.415 1210.42 249.415 1215.04 249.415 1219.64 248.825 1224.21 247.643 1228.77 246.462 1233.49 244.565 1238.36 241.951 1243.23 239.338 1246.36 238.031 1247.76 238.031 1249.77 238.031 1251.43 239.803 1252.74 243.347 1254.05 246.892 1254.7 249.415 1254.7 250.919 1254.7 252.709 1254.2 254.177 1253.2 255.322 1252.19 256.468 1249.45 258.329 1244.98 260.907 1240.5 263.484 1235.16 265.668 1228.95 267.458 1222.74 269.248 1215.74 270.143 1207.95 270.143 1189.69 270.143 1176.31 264.236 1167.82 252.422 1159.33 240.609 1155.08 221.958 1155.08 196.469ZM1277.12 109.725C1277.12 106.824 1277.44 105.002 1278.08 104.258 1278.72 103.515 1280.13 103.143 1282.32 103.143L1290.36 103.143C1292.61 103.143 1294.09 103.552 1294.79 104.37 1295.49 105.188 1295.84 106.898 1295.84 109.501L1295.84 170.746 1362.4 170.746 1362.4 109.501C1362.4 106.824 1362.75 105.095 1363.45 104.314 1364.15 103.533 1365.6 103.143 1367.79 103.143L1375.82 103.143C1378.14 103.143 1379.58 103.496 1380.16 104.202 1380.74 104.909 1381.03 106.675 1381.03 109.501L1381.03 263.561C1381.03 266.461 1380.71 268.283 1380.07 269.027 1379.43 269.771 1378.02 270.143 1375.82 270.143L1367.79 270.143C1365.54 270.143 1364.08 269.734 1363.41 268.916 1362.74 268.097 1362.4 266.313 1362.4 263.561L1362.4 192.053 1295.84 192.053 1295.84 263.784C1295.84 266.387 1295.49 268.097 1294.79 268.916 1294.09 269.734 1292.61 270.143 1290.36 270.143L1282.32 270.143C1280.13 270.143 1278.72 269.771 1278.08 269.027 1277.44 268.283 1277.12 266.461 1277.12 263.561Z"/><text fill="#000000" fill-opacity="0" font-family="Arial,Arial_MSFontService,sans-serif" font-size="167" x="445.12" y="249.268">RESEARCH</text><path d="M1413.55 112.179C1413.55 108.386 1413.99 105.932 1414.87 104.816 1415.75 103.7 1417.75 103.143 1420.85 103.143L1465.78 103.143C1483.37 103.143 1496.21 106.601 1504.31 113.517 1512.4 120.434 1516.45 131.329 1516.45 146.203 1516.45 155.946 1514.52 163.811 1510.65 169.798 1506.79 175.785 1500.56 179.819 1491.98 181.902L1491.98 182.459C1502.09 184.095 1509.74 188.149 1514.95 194.619 1520.15 201.089 1522.75 210.46 1522.75 222.731 1522.75 239.465 1518.78 251.55 1510.84 258.987 1502.89 266.424 1490.49 270.143 1473.63 270.143L1420.85 270.143C1417.69 270.143 1415.68 269.603 1414.83 268.525 1413.97 267.447 1413.55 264.937 1413.55 260.995ZM1466.41 170.188C1479.62 170.188 1486.23 163.867 1486.23 151.224 1486.23 144.307 1484.49 139.529 1481.02 136.889 1477.55 134.248 1472.2 132.928 1464.95 132.928L1442.95 132.928 1442.95 170.188ZM1468.97 240.357C1477.13 240.357 1483 238.665 1486.59 235.281 1490.19 231.897 1491.98 226.896 1491.98 220.277 1491.98 213.435 1490.38 208.322 1487.19 204.938 1483.99 201.554 1478.35 199.862 1470.25 199.862L1442.95 199.862 1442.95 240.357ZM1540.06 176.709C1540.06 150.504 1545.59 131.692 1556.64 120.272 1567.69 108.853 1583.04 103.143 1602.7 103.143 1623.46 103.143 1638.98 109.139 1649.27 121.131 1659.56 133.124 1664.7 151.22 1664.7 175.42L1664.7 196.577C1664.7 245.621 1643.82 270.143 1602.06 270.143 1582.58 270.143 1567.38 264.325 1556.45 252.691 1545.53 241.056 1540.06 222.781 1540.06 197.865ZM1634.39 194.751 1634.39 178.642C1634.39 162.604 1632 150.916 1627.22 143.577 1622.44 136.238 1614.18 132.569 1602.43 132.569 1590.68 132.569 1582.4 136.203 1577.59 143.47 1572.78 150.737 1570.38 162.461 1570.38 178.642L1570.38 194.751C1570.38 210.932 1572.81 222.62 1577.68 229.816 1582.55 237.011 1590.8 240.609 1602.43 240.609 1614.12 240.609 1622.36 236.94 1627.17 229.601 1631.98 222.262 1634.39 210.646 1634.39 194.751ZM1682.98 255.752 1722.06 183.91 1686.45 119.207C1684.38 115.488 1683.01 112.885 1682.34 111.398 1681.67 109.91 1681.33 108.497 1681.33 107.159 1681.33 105.671 1681.84 104.63 1682.84 104.035 1683.84 103.44 1685.32 103.143 1687.27 103.143L1706.44 103.143C1708.51 103.143 1710.1 103.552 1711.19 104.37 1712.29 105.188 1713.44 106.824 1714.66 109.278L1738.22 155.351 1761.5 109.278C1762.72 106.675 1763.95 105.002 1765.2 104.258 1766.45 103.515 1768.29 103.143 1770.72 103.143L1788.9 103.143C1791.09 103.143 1792.62 103.44 1793.51 104.035 1794.39 104.63 1794.83 105.523 1794.83 106.712 1794.83 107.828 1794.59 108.999 1794.1 110.227 1793.61 111.454 1792.82 113.034 1791.73 114.968L1755.02 184.021 1794.01 256.644C1795.65 259.619 1796.7 261.683 1797.16 262.836 1797.62 263.988 1797.84 265.048 1797.84 266.015 1797.84 267.577 1797.34 268.655 1796.34 269.25 1795.33 269.845 1793.8 270.143 1791.73 270.143L1773.01 270.143C1770.69 270.143 1769.01 269.752 1767.94 268.971 1766.87 268.19 1765.67 266.499 1764.33 263.896L1738.13 212.356 1711.74 263.896C1710.46 266.499 1709.24 268.19 1708.09 268.971 1706.93 269.752 1705.13 270.143 1702.7 270.143L1683.89 270.143C1680.3 270.143 1678.5 268.841 1678.5 266.238 1678.5 265.048 1678.79 263.84 1679.37 262.613 1679.95 261.385 1681.15 259.099 1682.98 255.752Z"/><text fill="#000000" fill-opacity="0" font-family="Arial,Arial_MSFontService,sans-serif" font-size="167" x="1413.55" y="249.268">BOX</text><text font-family="Verdana,Verdana_MSFontService,sans-serif" font-weight="400" font-size="101" transform="translate(452.587 387)">Open Research Made Easy</text></g></svg>